<svg width="1765" height="378" viewBox="0 0 1765 378" fill="none" xmlns="http://www.w3.org/2000/svg">
<path d="M1750.37 372.077H1369.14V8.07715H1764.37L1750.37 49.0002H1417.61V162.077H1754.14L1740.14 203H1417.61V331.154H1764.37L1750.37 372.077Z" fill="#222222"/>
<path d="M525.728 5.38428V372.077H476.728V5.38428H525.728Z" fill="#222222"/>
<path d="M224.538 208.923L171.231 203.538C45.2308 192.231 5.38462 164.769 5.38462 104.462C5.38462 37.6923 44.1539 0 191.154 0C265.462 0 339.231 10.7693 395.231 22.6154L382.308 64.0769C322 50.6154 255.231 41.4615 186.308 41.4615C77 41.4615 53.8462 61.9231 53.8462 99.6154C53.8462 135.692 79.6923 152.385 183.077 162.615L232.615 167.462C362.923 180.385 403.308 201.385 403.308 273.538C403.308 335.462 361.308 378 209.462 378C135.154 378 56 367.231 0 355.923L12.9231 316.077C62.4615 327.923 144.846 337.077 214.308 337.077C320.385 337.077 354.846 311.769 354.846 273.538C354.846 239.077 334.923 220.231 224.538 208.923Z" fill="#222222"/>
<path fill-rule="evenodd" clip-rule="evenodd" d="M1246.99 40.0254H652.436V340.666H1246.99V40.0254ZM616.538 4.12793V376.564H1282.88V4.12793H616.538Z" fill="#222222"/>
</svg>
