<svg width="1212" height="260" viewBox="0 0 1212 260" fill="none" xmlns="http://www.w3.org/2000/svg">
<path d="M1201.48 255.399H939.8V5.54419H1211.09L1201.48 33.6344H973.064V111.252H1204.07L1194.46 139.342H973.064V227.309H1211.09L1201.48 255.399Z" fill="#B2B9C0"/>
<path d="M360.868 3.69604V255.399H327.233V3.69604H360.868Z" fill="#B2B9C0"/>
<path d="M154.127 143.408L117.535 139.712C31.0471 131.95 3.69608 113.1 3.69608 71.704C3.69608 25.8726 30.3079 0 131.211 0C182.217 0 232.853 7.39218 271.292 15.5235L262.422 43.9834C221.026 34.7432 175.194 28.4598 127.884 28.4598C52.854 28.4598 36.9608 42.5049 36.9608 68.3775C36.9608 93.1412 54.702 104.599 125.667 111.622L159.671 114.948C249.116 123.819 276.836 138.233 276.836 187.761C276.836 230.266 248.007 259.465 143.778 259.465C92.7716 259.465 38.4392 252.073 0 244.311L8.87059 216.96C42.8745 225.091 99.4246 231.375 147.104 231.375C219.917 231.375 243.572 214.003 243.572 187.761C243.572 164.106 229.896 151.17 154.127 143.408Z" fill="#B2B9C0"/>
<path fill-rule="evenodd" clip-rule="evenodd" d="M855.95 27.474H447.841V233.838H855.95V27.474ZM423.2 2.8335V258.479H880.59V2.8335H423.2Z" fill="#B2B9C0"/>
</svg>
